<svg xmlns="http://www.w3.org/2000/svg" xmlns:xlink="http://www.w3.org/1999/xlink" viewBox="0 0 139.01 106.92"><defs><style>.cls-1{fill:#c7e3e7;}.cls-2{fill:#b5d1d7;}.cls-3{fill:#d23234;}.cls-4{fill:#231f20;opacity:0.2;isolation:isolate;}.cls-5{fill:#161644;}.cls-6{fill:#93704a;}.cls-7{fill:#ae8e64;}.cls-8{fill:#383938;}.cls-9{fill:#f24e3c;}.cls-10{fill:#6e9eac;}.cls-11{fill:#df8969;}.cls-12{fill:#94c4d4;}.cls-13{fill:#fff;}.cls-14{fill:#575858;}.cls-15{fill:url(#radial-gradient);}.cls-16{fill:url(#radial-gradient-2);}.cls-17{fill:#3d2f2b;}.cls-18{fill:#c56a4b;}.cls-19{fill:#fcdcdc;}.cls-20{fill:#0612dc;}.cls-21{fill:#1632fc;}.cls-22{fill:#fde316;}.cls-23{fill:#6ecbf3;}.cls-24{fill:#f0a773;}.cls-25{fill:#dcf1f4;}.cls-26{fill:#c4d6eb;}</style><radialGradient id="radial-gradient" cx="103.34" cy="-435.75" r="6.18" gradientTransform="matrix(1, 0, 0, -1, -9.89, -373.21)" gradientUnits="userSpaceOnUse"><stop offset="0" stop-color="#cf3634"/><stop offset="1" stop-color="#f47a63"/></radialGradient><radialGradient id="radial-gradient-2" cx="93.39" cy="-436.97" r="6.83" xlink:href="#radial-gradient"/></defs><title>human</title><g id="Layer_2" data-name="Layer 2"><g id="Layer_1-2" data-name="Layer 1"><path class="cls-1" d="M.1,57.22c.7-.2.4-.8.4-1.1,0-.7.1-1.2,1-1.2,1.6-.09,3.1-.3,4.7-.3,2.4,0,4.9-.3,7.3-.2,2,.1,2.4.41,2.4,2.41a41.28,41.28,0,0,0,.1,6.09c.1.6-.4.6-.9.7-1.3.1-2.6.3-4,.3-3.2.1-6.4.2-9.5.2-.9,0-1.4-.7-1.4-1.8v-3.5c0-.3.1-.7-.2-.9A2,2,0,0,0,.1,57.22ZM6.7,63c2.1.2,4.7-.19,7.3-.19.5,0,.7-.1.8-.7.3-2,.1-4,.2-6,0-.7-.3-.9-.9-.9-1.8.1-3.6.19-5.3.19-2.1,0-4.3.2-6.4.41a.52.52,0,0,0-.6.59c-.4,1.91,0,3.91-.4,5.81-.1.6.1.8.8.8Z"/><path class="cls-1" d="M.8,66.33c-.6-.7-.5-1,.4-1.31a6.93,6.93,0,0,1,2.4-.1,42.64,42.64,0,0,0,5,.2,1,1,0,0,1,.9.4c.2.4-.2.5-.3.7C6.4,66.33,3.6,66.33.8,66.33Z"/><path class="cls-1" d="M30.3,66.33c-.4-.41-.9-.1-1.3-.2s-.8-.1-.8-.5a.66.66,0,0,1,.7-.6H32c.3,0,.5.1.5.4s-.2.4-.5.5c-.5.29-1.2,0-1.7.4Z"/><path class="cls-2" d="M84.3,19c-5.1,0-10.1-.1-15.2,0a45.25,45.25,0,0,0-7.4.7c-1.3.3-1.5,0-1.5-1.3-.1-3-.2-6.1-.2-9.1,0-2.4.3-4.8.2-7.19,0-.61.3-.8.8-.8,3.6-.2,7.2-.3,10.8-.6S79.2.23,83,.13a32.86,32.86,0,0,1,7.8.2c1,.2,1.1.7,1,1.4a38.8,38.8,0,0,0-.2,5.9c0,2.79.6,5.5.7,8.29a6.25,6.25,0,0,0,.2,1.91c.2.59-.5.7-.9.8a11.72,11.72,0,0,1-2.5.2H84.3ZM86.1.92c-3,.1-6.1.2-9.1.4-3.6.3-7.1.4-10.7.6-1.5.1-3,.3-4.4.4a.53.53,0,0,0-.6.6c-.1,2.9-.2,5.8-.4,8.6,0,.7.2.8.7.4a74.79,74.79,0,0,1,6.6-4.3c1.3-.7,2.6-1.4,4.1-1A8.67,8.67,0,0,1,75,8c1.7,1.3,3.3,2.6,4.9,3.9,1.1.9,1.4.9,2.5.1,2.3-1.7,4.6-2.1,7.2-.7.5.3.7.1.6-.5a34.68,34.68,0,0,1-.2-9.1c.1-.6-.1-.8-.7-.8Z"/><path class="cls-2" d="M83.1,28.22c2.4,0,4.6,0,6.7.2.5.1.5,0,.4.6,0,.4.4.7.3,1.2a87.56,87.56,0,0,0,.8,11.5,2.85,2.85,0,0,1-.2,1.6c-.1.2-.2.4-.5.4a.43.43,0,0,1-.4-.4,2.92,2.92,0,0,1-.2-.9c0-3.7-.6-7.3-.6-10.9,0-.6-.3-1.3-.1-1.9.1-.4-.2-.4-.5-.4a72.2,72.2,0,0,0-10.4,0c-2.1.2-4.1.2-6.2.2-3.3,0-6.6.3-9.9.4-.5,0-.6.1-.5.6a9.66,9.66,0,0,1-.1,2.4c-.1,1.3.1,2.7.1,4.1a40.12,40.12,0,0,1-.2,6c-.1,1.1-.1,1.2,1,1.1,2.7-.3,5.3-.1,8-.2,5.5-.2,11-.4,16.4-.4.6,0,1.2-.1,1.7-.1s.7.1.6.5-.4.4-.7.4a34.64,34.64,0,0,1-4.6.2c-4,.1-8,.4-12.1.4-3.5,0-7,.2-10.5.4-.3,0-.7.1-.9-.2a.45.45,0,0,1-.2-.6c.7-2,.2-4.09.2-6.09-.1-2.2-.5-4.41-.5-6.6a3.17,3.17,0,0,1,.4-1.6,1.44,1.44,0,0,0,.2-.3c-.7-1.2.4-.8.8-.9,5.4-.3,10.7-.6,16.1-.7A54.21,54.21,0,0,0,83.1,28.22Z"/><path class="cls-1" d="M29.7,12.62h-7c-3,.1-6,.2-8.9.4a.53.53,0,0,0-.6.6c0,1.8,0,3.7.1,5.5,0,.3.1.8-.2.8s-.4-.4-.4-.7a40.77,40.77,0,0,1-.4-6.1c0-.6.2-.9.8-.8a43.49,43.49,0,0,0,5.1-.2c5.1-.2,10.2-.2,15.3-.2h4.1c1.7,0,2.3.5,2.4,2.2.1,2.4-.2,4.8-.2,7.3,0,.5-.3,1.1-1,.4-.2-.3-.5-.2-.8-.2H33.8c-6-.2-12-.6-18-.4a21.05,21.05,0,0,0-2.5.2c-.5,0-1.1,0-1.1-.5s.5-.6,1-.6h6.4c2.2,0,4.4-.1,6.6,0,3.9.2,7.7.5,11.6.4.7,0,1.1,0,.9-1a19.72,19.72,0,0,1,.2-4.2c0-.4.1-.8.1-1.3-.1-1.2-.4-1.5-1.6-1.5-2.7-.1-5.2-.1-7.7-.1Z"/><path class="cls-2" d="M13.2,25.22c1-.59,2.2-.4,3.3-.5a117.3,117.3,0,0,1,17.9-.59c1.3,0,2.6.29,3.9.2.4,0,.6.2.7.7a44.08,44.08,0,0,1,.4,7.3.94.94,0,0,1-.9,1.09,19.67,19.67,0,0,1-2.4.3h-16a30.39,30.39,0,0,0-6,.5c-.6.1-.9-.09-1.1-.7a16.79,16.79,0,0,1-.7-5c-.1-.7,0-1.4-.1-2.1-.3-.8,0-1.2,1-1.2,0,.91.2,1.7.2,2.6-.1,1.5.2,3,.2,4.5,0,.8.3,1.1,1.1,1a29.66,29.66,0,0,1,4.2-.3H37.4c.8,0,1-.2,1-1,0-2.1-.4-4.3-.4-6.4,0-.5-.3-.6-.8-.7-1.7-.1-3.5-.2-5.2-.2-2.5,0-5,.1-7.5.2C20.7,25,16.9,25.22,13.2,25.22Z"/><path class="cls-1" d="M25.9,64H20.8c-1.8,0-2.6-.69-2.6-2.5-.1-1.6,0-3.19,0-4.9,0-.2.1-.3.1-.5-.2-1.4-.2-1.4,1.3-1.5,2.7-.1,5.3-.2,8-.2,1.5,0,2.9.1,4.4.2.8,0,1.2.7,1.3,1.7.1,1.2-.3,2.4-.2,3.7a16.08,16.08,0,0,0,.1,3.1c.1.4-.1.5-.4.6a3.89,3.89,0,0,1-1.5.2c-1.9.1-3.6.1-5.4.1Zm-.6-1.4h5.6c.4,0,.8,0,.8-.6a31.28,31.28,0,0,1,.4-4.4c.2-1.7.1-1.8-1.7-1.7h-.2c-3.5-.3-7,.1-10.5.1-.7,0-.9.4-.9,1a43.65,43.65,0,0,0,.4,5.2c0,.4.2.4.6.4Z"/><path class="cls-1" d="M21.9,37.12c2.4,0,4.9-.1,7.3,0s5,.2,7.6.4h.8c1.2-.1,1.3,0,1.3,1.1,0,1.7.3,3.3.2,5s0,1.6-1.6,1.7c-2.8.1-5.6.3-8.4.5H27.6c-4.6,0-9.1.4-13.7.6-.8,0-1.1.1-1.2-1.1-.1-2.1,0-4.1-.1-6.2,0-1.7.3-2,2-2Zm-8.4,4.7h0a26.15,26.15,0,0,1,0,2.8c-.1,1,.3,1.2,1.2,1.1,1.5-.2,3-.3,4.5-.4,3.7-.3,7.3-.1,11-.4,2.3-.2,4.6-.2,6.9-.2.6,0,.9-.2.9-.9-.1-1.7-.1-3.4-.2-5,0-.6-.5-.7-.9-.7-1.3,0-2.6-.1-3.9-.2-3.5-.1-7.1-.4-10.6-.2h-.8c-2.4-.5-4.7,0-7.1,0-.6,0-1,.3-.9,1C13.6,39.82,13.5,40.82,13.5,41.82Z"/><path class="cls-1" d="M134.2,14.32a31,31,0,0,1,4.3.2c.5.1.7.2.3.7-.2.2-.1.4-.1.6-.1,2.2-.2,4.51-.2,6.7,0,.8-.1,1.1-1,1.2a32.94,32.94,0,0,1-7.7-.2.86.86,0,0,1-.8-.7,10.87,10.87,0,0,1-.4-2.6v-4.5c0-.8.2-1.1,1.1-1.3C131.2,14.32,132.7,14.42,134.2,14.32Zm-.2,1h-3.1c-.6,0-.8.2-.9.9-.2,2,.1,4.1,0,6.1,0,.4.1.5.6.5a48.66,48.66,0,0,1,5.4.1c.4,0,1.4.3,1.4-.7.1-2.1.1-4.1.2-6.2,0-.5-.2-.7-.7-.7Z"/><path class="cls-1" d="M116.5,19.72a9.53,9.53,0,0,1-.1,2.3c-.2.6.2.7.7.7,1.8.1,3.6-.2,5.4-.2.3,0,.7-.2.8.3s-.4.4-.7.5c-1.2.1-2.5.6-3.7.2-.8-.2-1.5.5-2.3.3a1.27,1.27,0,0,1-1-1.2,49.7,49.7,0,0,1,.1-6.7c.1-1.3.6-1.4,1.6-1.5,2.1-.2,4.2-.1,6.3-.1a1.44,1.44,0,0,1,1.6,1.5c.4,2.2,0,4.4,0,6.6,0,.4-.1.8-.5.8s-.6-.4-.6-.8c0-1.1-.1-2.1,0-3.2a8.61,8.61,0,0,0,0-3.2c-.1-.6-.4-.9-.9-.7-1.8.4-3.6,0-5.4.3a1,1,0,0,0-.9.9C116.4,17.32,116.5,18.32,116.5,19.72Z"/><path class="cls-1" d="M74.6,36.42c-2.3-.7-4.4-1.4-6.4-2l-.7-.29a.47.47,0,0,1-.3-.5c.1-.3.3-.21.6-.21a36.13,36.13,0,0,1,6.2,2,4,4,0,0,0,3.5-.29A55.06,55.06,0,0,1,85.2,32c.3-.1.7-.5.8,0s-.3.5-.6.6c-2.8,1.2-5.6,2.5-8.5,3.79,2.1.8,4.1,1.5,6,2.21.4.2.8.29,1.3.5.2.09.4.2.3.4s-.3.1-.5.1c-1.6-.41-3.1-1.1-4.7-1.6-1-.3-2-.7-3-1.1a1.16,1.16,0,0,0-1,.2c-2.8,1.4-5.8,2.5-8.5,4.1-.2.1-.4.1-.6.2s-.6,0-.7-.3.2-.5.4-.6c1.4-.7,2.9-1.4,4.3-2S73,37.22,74.6,36.42Z"/><path class="cls-1" d="M132.9,8.52c-2.2.1-4.1-.6-6.2-1-2.3-.5-4.5-.8-6.7.5-.2.1-.4.3-.6,0a.49.49,0,0,1,.1-.7,3.1,3.1,0,0,1,1.8-.9,12.62,12.62,0,0,1,6.4.4,17.29,17.29,0,0,0,6.4.7h1a.55.55,0,0,1,.5.3c.1.3-.2.4-.4.4A5.83,5.83,0,0,1,132.9,8.52Z"/><path class="cls-1" d="M63.7,21a2.47,2.47,0,0,1,2.7,2.5,2.57,2.57,0,0,1-2.4,2.7c-1.4,0-3.1-1.4-3-2.8C60.9,22,62.1,21,63.7,21Zm0,1.1c-1,0-1.8.6-1.8,1.3a2.08,2.08,0,0,0,2.1,1.7,1.62,1.62,0,0,0,1.4-1.6A1.58,1.58,0,0,0,63.7,22.12Z"/><path class="cls-1" d="M17.5,19a3,3,0,0,1-3.2-2.9c-.1-.9,2-2.5,3.1-2.5a3.15,3.15,0,0,1,3.1,2.9C20.5,18,19.4,19,17.5,19Zm.2-.8c1.1,0,1.8-.59,1.8-1.5a2.37,2.37,0,0,0-2.2-2.2,2.23,2.23,0,0,0-1.9,2A2.07,2.07,0,0,0,17.7,18.22Z"/><path class="cls-1" d="M63.8,50.92c-1.4.1-2.3-1-2.4-2.59-.1-.91,1.9-2.3,3-2.3a2.48,2.48,0,0,1,2.2,2.39A2.81,2.81,0,0,1,63.8,50.92Zm0-.7c1.3,0,1.9-.5,2-1.6a1.74,1.74,0,0,0-1.3-1.7c-.8-.1-2.1,1.3-2.2,2.1S62.9,50.22,63.8,50.22Z"/><path class="cls-1" d="M91.1,23c0,1.1-.6,1.9-1.5,1.8-1.5-.1-2.3-.9-2.3-2.1a1.73,1.73,0,0,1,1.6-1.9A2.16,2.16,0,0,1,91.1,23ZM90,23c-.1-.5-.4-1-1-1a.5.5,0,0,0-.5.6,1.41,1.41,0,0,0,1.1,1C89.9,23.62,90,23.32,90,23Z"/><path class="cls-1" d="M69.6,47.42h.3c1.9,1.31,4.1-.09,6.1.5a2.82,2.82,0,0,0,1.3-.2,1.11,1.11,0,0,1,.8.1c.2.1.4.2.4.51s-.3.19-.5.3c-1.8.2-3.7-.3-5.6.4a1.84,1.84,0,0,1-1.6-.2,1.83,1.83,0,0,0-2.1.4c-.3.3-.8.6-1.1.2s0-.9.3-1.1A5.48,5.48,0,0,1,69.6,47.42Z"/><path class="cls-1" d="M72.9,23.32a3.06,3.06,0,0,0-1.5.3,2.53,2.53,0,0,1-1.7.2,1.44,1.44,0,0,0-1.4.2c-.2.2-.5.1-.7-.2a.48.48,0,0,1,.1-.7,1.1,1.1,0,0,1,1.5-.3,3.06,3.06,0,0,0,2.3-.1,3.37,3.37,0,0,1,2.4.1,2.51,2.51,0,0,0,1.9-.1,3.58,3.58,0,0,1,2.5,0c.3.1.7.1.7.5s-.5.3-.7.2C76.4,22.82,74.5,24.42,72.9,23.32Z"/><path class="cls-1" d="M27.6,15.72a6.89,6.89,0,0,0-.8.3,2.44,2.44,0,0,1-2.6.1c-.6-.4-.9.1-1.2.4s-.5.6-.9.2,0-.7.3-.9a1.63,1.63,0,0,1,2.3-.4,1.36,1.36,0,0,0,1.6.1,3,3,0,0,1,2.9,0,2,2,0,0,0,2.1,0c1-.6,1.9,0,2.7.5.1.1.2.2.2.3a.4.4,0,0,1-.4.2c-1.2-1-2.4-.2-3.6,0a1.94,1.94,0,0,1-1.3-.3A11.22,11.22,0,0,0,27.6,15.72Z"/><path class="cls-1" d="M88.4,46.32a1.45,1.45,0,0,1,1.5,1.6,2,2,0,0,1-1.9,2c-1.2-.1-2.1-.8-2-1.8A2.25,2.25,0,0,1,88.4,46.32ZM89,48a.81.81,0,0,0-.7-.9c-.7,0-1.5.6-1.5,1.1a.86.86,0,0,0,1.1.8A.89.89,0,0,0,89,48Z"/><path class="cls-1" d="M21.6,64.92H23c.3,0,.5.1.5.41a.47.47,0,0,1-.5.5,14.14,14.14,0,0,1-2.9.19c-.4,0-.7-.1-.7-.5a.58.58,0,0,1,.6-.6,8.55,8.55,0,0,0,1.6,0Z"/><path class="cls-1" d="M12.8,66.12h-.4c-.3,0-.7,0-.7-.4s.4-.5.8-.5h.8c.3,0,.8-.1.8.4s-.4.6-.8.6A1.34,1.34,0,0,0,12.8,66.12Z"/><path class="cls-1" d="M7.6,60.92a2.21,2.21,0,0,1-1.5-.5c-.2-.19-.5-.4-.4-.69s.5-.2.7-.2a5.34,5.34,0,0,0,2.2.3c.2-.1.3.2.4.4a.71.71,0,0,1-.3.6A4.15,4.15,0,0,1,7.6,60.92Z"/><path class="cls-1" d="M9.1,57a.74.74,0,0,1,.8.81.84.84,0,0,1-.9.9c-.5,0-1-.2-1-.81S8.4,57,9.1,57Z"/><path class="cls-1" d="M5.7,58.52a.71.71,0,0,1-.8-.69A.86.86,0,0,1,5.7,57a.74.74,0,0,1,.8.81C6.5,58.33,6.1,58.52,5.7,58.52Z"/><path class="cls-1" d="M84.9,4.42c0,.1,0,.2-.1.2l-.2.2a3.08,3.08,0,0,1-1.9.3c-.2-.1-.5,0-.8-.1s-.6-.1-.6-.4a.47.47,0,0,1,.5-.5c.5-.1,1-.1,1.3-.7l.1-.1A6.19,6.19,0,0,1,84.9,4.42Z"/><path class="cls-2" d="M17.8,31.92h-.2c-1.8,0-3-.79-3.1-2.09a3.47,3.47,0,0,1,2.7-3.5c1.1-.2,2.6.7,3.4,1.9a2.41,2.41,0,0,1-.2,2.8C19.8,31.72,19.2,31.92,17.8,31.92Zm-.2-4.7a2.32,2.32,0,0,0-2.3,1.6c-.2,1.1.1,1.9,1,2.1a4.67,4.67,0,0,0,1.7.3,2.23,2.23,0,0,0,2.2-1.3,2.44,2.44,0,0,0-1.2-2.4A2.54,2.54,0,0,0,17.6,27.22Z"/><path class="cls-2" d="M24.4,27.62a1.27,1.27,0,0,1,.6.1,4,4,0,0,0,3.8.2.88.88,0,0,1,.7.1,2.28,2.28,0,0,0,1.6.4c.2,0,.5,0,.5.3s-.2.5-.4.6a.9.9,0,0,1-1-.1,2.49,2.49,0,0,0-2.5-.1,2.33,2.33,0,0,1-2,0,2,2,0,0,0-2.1.1,1.42,1.42,0,0,1-.6.2c-.3.1-.6.2-.8-.1s0-.6.2-.8A4.57,4.57,0,0,1,24.4,27.62Z"/><path class="cls-2" d="M33.8,28.12a.81.81,0,0,1,.9-.7c.7.1,1.3.4,1.4,1.2,0,.6-.5,1.3-1.1,1.2S33.8,29.12,33.8,28.12Z"/><path class="cls-1" d="M26,60.92c-.8-.19-1.6.31-2.4.5-.5.1-.8.1-1-.4s.3-.69.6-.8a7,7,0,0,1,3.5-.5.77.77,0,0,1,.8.7c0,.5-.5.4-.9.4A1.08,1.08,0,0,1,26,60.92Z"/><path class="cls-1" d="M26.6,57.92a.53.53,0,0,1-.6.6.66.66,0,0,1-.7-.5.58.58,0,0,1,.6-.6C26.3,57.33,26.5,57.52,26.6,57.92Z"/><path class="cls-1" d="M24,57.92c0,.31-.2.41-.5.41s-.6-.1-.5-.5.2-.41.5-.41S23.9,57.62,24,57.92Z"/><path class="cls-1" d="M19.5,41.32a2.78,2.78,0,0,1-2.6,2.4,3,3,0,0,1-2.6-2.5c0-1.9.9-3.2,2.4-3.09A3.4,3.4,0,0,1,19.5,41.32Zm-.7-.1c0-.9-.9-2.09-1.5-2.09a2.22,2.22,0,0,0-2.2,2.2,1.89,1.89,0,0,0,2,1.7A1.62,1.62,0,0,0,18.8,41.22Z"/><path class="cls-1" d="M21.5,40.62c1,.8,2.1-.3,3.1-.1a14.27,14.27,0,0,0,4.6.1c.5-.1,1.1.3,1.7.4.2.1.4.2.3.4a.24.24,0,0,1-.4.1,5.27,5.27,0,0,0-1.2-.3,45.13,45.13,0,0,1-5.2.1c-.9,0-1.7.6-2.7.1-.5-.2-.7.3-1,.6-.2.1-.5.4-.7.2a.61.61,0,0,1,0-.8A1.45,1.45,0,0,1,21.5,40.62Z"/><path class="cls-1" d="M35.8,41.42c0,.8-.3,1.3-1.2,1.3-.7,0-1.4-.59-1.3-1.2,0-.9.7-1.8,1.4-1.8C35.2,39.72,35.8,40.52,35.8,41.42Zm-.6-.2c-.1-.3-.1-.8-.5-.7s-.6.6-.7,1,.1.7.5.6C35.1,42.12,35.1,41.72,35.2,41.22Z"/><path class="cls-1" d="M16.6,16.52c-.2,0-.5,0-.5-.3a.37.37,0,0,1,.4-.4c.3,0,.4.1.5.4S16.8,16.52,16.6,16.52Z"/><path class="cls-1" d="M17.7,17.22a.37.37,0,0,1-.4.41c-.3,0-.5,0-.6-.3s.2-.2.3-.2C17.3,17.12,17.6,17,17.7,17.22Z"/><path class="cls-2" d="M18.3,30.22c-.2.41-.4.6-.8.5s-1-.2-1-.7a.28.28,0,0,1,.5-.2C17.4,30,18,29.82,18.3,30.22Z"/><path class="cls-1" d="M17.2,41.92c-.1.41-.4.41-.6.5s-.7,0-.8-.4.2-.4.5-.3C16.6,41.62,17,41.42,17.2,41.92Z"/><path class="cls-3" d="M54.9,49.83l5.7,2.59A11.16,11.16,0,0,0,61.8,44a12,12,0,0,0-2-3.9Z"/><ellipse id="Ellipse_7" data-name="Ellipse 7" class="cls-4" cx="69.7" cy="104.62" rx="46" ry="2.3"/><path class="cls-5" d="M20.5,63.92v4.6a7.7,7.7,0,0,0,7.7,7.7l29.8.3c.1-4.19.1-8.5.1-12.8Z"/><rect class="cls-5" x="53.1" y="68.52" width="2.4" height="31.6"/><rect class="cls-5" x="43.2" y="68.52" width="2.3" height="31.8"/><rect class="cls-5" x="28.6" y="68.52" width="2.4" height="31.6"/><rect class="cls-5" x="23.2" y="68.52" width="2.3" height="31.9"/><path class="cls-5" d="M46.2,64.83H20.5V39.42a6.27,6.27,0,0,1,6.3-6.29h.8a18.56,18.56,0,0,1,18.6,18.6h0v13.1Z"/><path class="cls-6" d="M60.7,51c-1.4,2.31-2.8,4.7-4.1,7a8.41,8.41,0,0,1-4,1.7c-.3,0-4.1.5-5.3-1.4-1.6-2.4.9-8.1,5.1-9.5S60.4,50.83,60.7,51Z"/><path class="cls-6" d="M63.4,34.32l-5.2,8.9-.9-2.4-.1-.4c-.5-1.2-.9-2.5-1.3-3.7a9.06,9.06,0,0,0,3.6-6.1,3.51,3.51,0,0,0,.6,1.4l.1.1.6.5C61,32.72,62,33.42,63.4,34.32Z"/><path class="cls-7" d="M63.5,38.22c-2-.3-3.1-2.59-3.7-3.8a10.21,10.21,0,0,1-1-3.79l1.5-3.3a1.45,1.45,0,0,1-.7-1c-.1-1.41,2.7-3.2,5.4-3.1h.2a5.82,5.82,0,0,1,4.1,3c2.1,3.3-.1,7.5-.2,7.8C68.2,35.62,66,38.62,63.5,38.22Z"/><path class="cls-8" d="M73.7,28.72c.1-.2-.1-.7-1-1.3a2.46,2.46,0,0,0,2.8-1.59,2.24,2.24,0,0,0-.9-2.3,2.41,2.41,0,0,0-3,.2,1.7,1.7,0,0,0,.9-1.6c-.1-.8-1.2-1.2-1.8-1.2-1.2,0-2.5,1.2-3.2,3.1a1.83,1.83,0,0,0,0-2.4,1.61,1.61,0,0,0-1.6-.41c-.8.3-1.2,1.5-1.3,1.41s.5-1,.2-1.6a1.27,1.27,0,0,0-.9-.4,1.4,1.4,0,0,0-1.1,1.5c-.9-1.71-2.3-2.5-3.3-2.1a1.82,1.82,0,0,0-1,1.1,2.89,2.89,0,0,0,1.7,3.29,2.75,2.75,0,0,0-2.3.5c-.8.91-.7,2.8.9,4.1a5.92,5.92,0,0,0-.1,1.9,4.53,4.53,0,0,0,.3,1.6c.4-.1.8-.2,1.3-.3a5.56,5.56,0,0,0,1.2-.5c1.5-.9,1.8-2.2,2.2-2.09s.4.79.2,1.29c-.2.71-.9,1-.8,1.41a.68.68,0,0,0,.8.4c1.2-.2,1.1-5,2.2-5.1.4,0,.6.5,1.1.4s.6-1.1,1-1.1.4,1.1,1,1.8C70.3,30.12,73.5,29.52,73.7,28.72Z"/><path class="cls-7" d="M63.9,30.82c0-.1.5-1.3-.1-1.9a1.4,1.4,0,0,0-.9-.3c-1.3.2-2.1,3.1-1.4,3.7.2.2.7,0,1-.1A3.16,3.16,0,0,0,63.9,30.82Z"/><path class="cls-9" d="M57.7,46.32A12.2,12.2,0,0,1,57,48c-.1.31-.3.6-.4.9l-.1.2a37.87,37.87,0,0,1-3.8,6l-1.5,1.8h0l-.2.2h0l-.6.6-.4.4-.7.7-.4.4-1.2.3h0l-1.8.31a31.55,31.55,0,0,1-4.3.3H39.4l-.6-.1a32.91,32.91,0,0,1-3.6-.4h0c-.4,0-.7-.1-1-.1a16,16,0,0,1-2.1-.5H32a2.93,2.93,0,0,1-1.6-1.3h0c-.1-.31-.2-.5-.3-.81A2.74,2.74,0,0,1,30,56a8.11,8.11,0,0,1,.8-3.4h0a24.19,24.19,0,0,1,2.1-3.9,28.69,28.69,0,0,1,4.6-5.3,41.49,41.49,0,0,1,3.2-2.7,24.28,24.28,0,0,1,11-4.5,17.71,17.71,0,0,1,4.6,0h0a7.32,7.32,0,0,0,.8,2.5,2.54,2.54,0,0,0,1.1,1.2A2.26,2.26,0,0,0,60,40c-.9,2.4-1.5,4.3-1.8,5.2C58,45.62,57.9,45.92,57.7,46.32Z"/><path class="cls-10" d="M61.5,69.12c-1.7,3.4-6.1,5.2-10.9,4.3-1.8,0-3.5-.09-5-.19A36.53,36.53,0,0,1,39,72l-1-.3c-6.2-1.7-7.8-3.6-8.5-4.6a10.42,10.42,0,0,1-1.5-4.9,10.18,10.18,0,0,1,1.9-6,28.17,28.17,0,0,0,13.9,3c3.2-.2,6-1,10.6-.31,2.8.5,5.5.91,6.9,3.1A7.19,7.19,0,0,1,61.5,69.12Z"/><path class="cls-7" d="M50.6,40.42a30.68,30.68,0,0,0-5.1,13,29.87,29.87,0,0,0-.3,4.2,10.55,10.55,0,0,0,.6,2.4c.7,1.6,6.2,2.1,13.2.1a4,4,0,0,0-2.2-3.5,3.77,3.77,0,0,0-4.8,2.1l-1.2-3c.5-1.3.9-2.7,1.3-4.1q1.5-5.25,2.4-9.9c-.1-.3-.9-2.6-2.2-2.6C51.6,39.12,51,39.92,50.6,40.42Z"/><path class="cls-9" d="M45.7,48c1.2.2,2.5.4,3.8.7a29.92,29.92,0,0,1,3.2.8c2.7-4.5,2.7-9,.6-10.9a3.83,3.83,0,0,0-2.9-1C47.9,37.92,45.7,42.12,45.7,48Z"/><path class="cls-7" d="M53.8,56.12a.78.78,0,0,0-.2-.8c-.2-.2-.8,0-1.1.7q.3-.15.3-.3a.74.74,0,0,0-.4-.8.72.72,0,0,0-.9.5h0s.2-.7-.1-.9c-.1,0-.1-.1-.2-.1-.7.1-1.6,3.7-1,4h.1c.6-.1.9-2.2.9-2.2-.1.6-.6,3.1,0,3.4h.2c.8-.2.8-3.1.9-3.1s-.6,2.7.1,3.2h.1c.5,0,1-2,1.2-3-.3,1.8-.2,2.4,0,2.4a4.41,4.41,0,0,0,1.2-3c0-.3,0-.8-.2-.9S54.1,55.62,53.8,56.12Z"/><path class="cls-11" d="M53.6,101.22c-.5-.2-1.2-.7-1.7-2.4l-2.5-.5a5,5,0,0,1-.6,2.4c-.5.8-1,1-1.1,1.8a2.69,2.69,0,0,0,.7,2.1l2.5-.2.1-.69c.5.1,1,.3,1.5.4a15.89,15.89,0,0,0,7.2-.2,2.93,2.93,0,0,0-.7-2.2,2.87,2.87,0,0,0-1.8-.7C55.3,100.83,54.6,101.62,53.6,101.22Z"/><path class="cls-10" d="M34.7,70.62c2.8,1.1,5.7,2.3,8.6,3.6,2.5,1.1,4.8,2.2,7.1,3.3a12.45,12.45,0,0,0-2.4,5.2c-.6,2.6-.1,4.4.2,7.3a56.31,56.31,0,0,1,.2,9.2l4.8,1.1,7.7-30.6Z"/><path class="cls-11" d="M23.7,98.33a3.43,3.43,0,0,1,.5-2.91l-1.4-2.09a4.83,4.83,0,0,1-2.1,1.3c-.9.2-1.4,0-2,.4a2.61,2.61,0,0,0-1,2l1.9,1.7.5-.4a5.67,5.67,0,0,0,.8,1.3,15.55,15.55,0,0,0,5.2,5,2.61,2.61,0,0,0,1-2,2.72,2.72,0,0,0-.8-1.7C25.1,99.22,24.1,99.33,23.7,98.33Z"/><path class="cls-12" d="M47.1,69.83a29.12,29.12,0,0,1,.9,5.8c.2,3,.3,5.1-.7,7-1.3,2.4-3.8,3.2-4.9,3.8a175.12,175.12,0,0,0-18.2,10.9l-1.4-2.1-1.3-2.1a57.14,57.14,0,0,0,6.4-6.6c1.8-2.2,2.8-3.9,5-5.3a14.67,14.67,0,0,1,5.4-2c-.1-.4-.3-.8-.4-1.2-.9-2.6-1.9-5.2-2.9-7.8Z"/><path class="cls-13" d="M66.2,36.12c-.1.2-.4.9-1,1s-1.8-.7-2-2.2Z"/><path class="cls-14" d="M118.5,66v5.1a8.75,8.75,0,0,1-8.6,8.7l-34.4.3c-.1-4.8.9-9.5.8-14.3Z"/><rect class="cls-14" x="76.5" y="71.12" width="2.7" height="34.6"/><rect class="cls-14" x="84.5" y="71.12" width="2.6" height="32.5"/><rect class="cls-14" x="104" y="71.12" width="2.7" height="35.4"/><rect class="cls-14" x="110.2" y="71.12" width="2.6" height="33.3"/><path class="cls-14" d="M110.4,31.42h.8a7.13,7.13,0,0,1,7.1,7.1V67H89.6V52.22a20.78,20.78,0,0,1,20.8-20.8Z"/><path class="cls-15" d="M98.5,59.33a22.73,22.73,0,0,0,1,4.5,19.16,19.16,0,0,0,1,2.5,14.88,14.88,0,0,1-9.5,1c-1.5-.41-3.6-.91-4.3-2.7-.9-2,.3-4.5,1.8-5.8C90.7,56.83,94.9,56.83,98.5,59.33Z"/><path class="cls-16" d="M75.5,61.12l14.9-2.7c1.5,2.81,1.7,6,.1,8.1-2.5,3.6-8.8,3.1-12.2.2A8.88,8.88,0,0,1,75.5,61.12Z"/><path class="cls-17" d="M100.2,94.52a6,6,0,0,1-2.4-2.6,16.45,16.45,0,0,0-1-2.3,5.78,5.78,0,0,0-2.3-1.8,10.61,10.61,0,0,0,1.6,3.4A10.82,10.82,0,0,0,100.2,94.52Z"/><path class="cls-18" d="M102.5,100.72c-1.1.9-3.9-.2-5.6-1.7l-.1-.1c-.9-.8-1.2-1.5-3.4-5.9-.7-1.4-1.3-2.6-1.7-3.3l3.1-2a11.65,11.65,0,0,0,4.4,5.4,7.55,7.55,0,0,1,1.4,1.1c.2.2.4.5.6.7C102.7,96.83,103.5,99.83,102.5,100.72Z"/><path class="cls-18" d="M69.3,71h0a3.54,3.54,0,0,0,.2,1.1,6.89,6.89,0,0,0,.3.8,27.88,27.88,0,0,0,3.7,7.81c5.3,8.19,7.2,12.9,8.1,15.4a2.54,2.54,0,0,1,.2.7c.4,1.19.6,2.19.8,2.9a8.06,8.06,0,0,1-3.2,3.4l-.6.3-.9.3c-.8.3-1.4.6-1.9.8.2.6,2.1,1.4,4.1,1.4a4.51,4.51,0,0,0,2.5-.7l.3-.1.3-.1a17.23,17.23,0,0,1,2.1-.7l.4-.1a3.33,3.33,0,0,0,2.1-1.1,2.51,2.51,0,0,0,.1-1.9,3.13,3.13,0,0,0-.5-1c-.1-.2-.3-.3-.4-.4-.6-.5-1.4-2.3-2.3-4.7-1.6-4.8-3.5-12-4.8-17.1a29.72,29.72,0,0,0-1.3-3.9,26.83,26.83,0,0,0-2.6-4.7l-.5-.7a3.33,3.33,0,0,0-2.9-1.3h0c-.2,0-.4.1-.6.1h-.1A3.66,3.66,0,0,0,69.3,71Z"/><path class="cls-19" d="M69.3,71h0v.7a3.44,3.44,0,0,0,3.4,2.9,43.15,43.15,0,0,0,5.7-.4,132.49,132.49,0,0,1,16.7-.8,5.51,5.51,0,0,0,5.7-5.4,3.75,3.75,0,0,0-.1-1v-.1a5.61,5.61,0,0,0-6.3-4.7c-.2,0-.3.1-.5.1-5.6,1.3-15.5,3.8-21.5,5.2h0l-.4.1A3.63,3.63,0,0,0,69.3,71Z"/><path class="cls-20" d="M69.3,71h0v.7a3.49,3.49,0,0,0,.5,1.3,28,28,0,0,0,3.7,7.81c5.3,8.19,7.2,12.9,8.1,15.4a6.3,6.3,0,0,0,3-1c-1.6-4.81-3.5-12-4.8-17.1a29.72,29.72,0,0,0-1.3-3.9,134.39,134.39,0,0,1,16.7-.81,5.51,5.51,0,0,0,5.7-5.4,2.77,2.77,0,0,0-.1-.9V67a5.6,5.6,0,0,0-6.3-4.69c-.2,0-.3.09-.5.09-5.6,1.31-15.5,3.81-21.5,5.2h0c-.2,0-.4.1-.6.1h-.1A3.42,3.42,0,0,0,69.3,71Z"/><path class="cls-21" d="M95,87.92l-3.1,2.2L73.2,67.72a4.16,4.16,0,0,1,.6-5.9c.1,0,.1-.1.2-.1h0a4.18,4.18,0,0,1,5.8,1.1l.1.1Z"/><path class="cls-17" d="M102.5,100.72c-1.1.9-3.9-.2-5.6-1.7a3.81,3.81,0,0,0,1.5-.1c1.3-.5,2.2-2.3,2.3-4.69.2.19.4.5.6.69C102.7,96.83,103.5,99.83,102.5,100.72Z"/><path class="cls-17" d="M86.1,37.82l12.2.4c.2-1.09.5-2.8.8-4.9.8-7.2,1.6-13.7-1.9-16.7a7.33,7.33,0,0,0-4.7-1.7,8.34,8.34,0,0,0-4.6,1.7c-3.9,3.1-3.4,9.6-3,13.8A23,23,0,0,0,86.1,37.82Z"/><path class="cls-7" d="M87.2,23.92a6.84,6.84,0,0,0,3.3,6.21,3.88,3.88,0,0,0,3.9,0,7,7,0,0,0,3.3-6.21c0-3.7-2.3-6.7-5.2-6.7S87.2,20.22,87.2,23.92Z"/><path class="cls-13" d="M94.2,27.62a2.21,2.21,0,0,1-1.2,1.3,2.35,2.35,0,0,1-.8.2,1.08,1.08,0,0,1-.8-.2,2.1,2.1,0,0,1-1.3-1.3Z"/><path class="cls-22" d="M86,59.22a15.81,15.81,0,0,0,5.7,1.3,17.66,17.66,0,0,0,6.8-1.1c.1-.8.1-1.5.2-2.19q.9-11,1.2-21.6l-4.2-1.3h-2a2.08,2.08,0,0,1-2,.5,1.79,1.79,0,0,1-.7-.5H89.1L84,35.53C84.7,43.42,85.3,51.33,86,59.22Z"/><path class="cls-13" d="M89.1,34.22A6.55,6.55,0,0,0,90.6,36a3.59,3.59,0,0,0,1,.7,9.29,9.29,0,0,1,.5-1v-.09l.2-.5.2-.5h-.2a3.59,3.59,0,0,1-1.1-.41c-.4-.2-.6-.59-.9-.9h0a.91.91,0,0,0-.7.3A1,1,0,0,0,89.1,34.22Z"/><path class="cls-13" d="M92.2,34.62l.2.5a1.69,1.69,0,0,1,.2.5v.1a9.29,9.29,0,0,1,.5,1,3.59,3.59,0,0,0,1-.7,6.55,6.55,0,0,0,1.5-1.8,1.56,1.56,0,0,0-.6-.8c-.2-.1-.5-.2-.7-.3h0a2,2,0,0,1-.9.9,2.1,2.1,0,0,1-1.1.4Z"/><path class="cls-6" d="M90.4,30.12v3.1a2,2,0,0,0,.9.9,1.57,1.57,0,0,0,2.2,0,2.58,2.58,0,0,0,.9-.9h0v-3.1A4.07,4.07,0,0,1,90.4,30.12Z"/><path class="cls-17" d="M92.4,15.62a12.29,12.29,0,0,0-5.4,4.7c-3.2,5.2-1.4,11.8-.5,11.9.4,0-.4-4.2,2.1-8.2a13.5,13.5,0,0,1,6.5-5.3,52,52,0,0,0,1.1,6.7,74.46,74.46,0,0,0,2.7,9.2c3.8-5.7,3.6-12.4.2-16A10.85,10.85,0,0,0,92.4,15.62Z"/><path class="cls-22" d="M86.6,35.72a2.61,2.61,0,0,1,.4,3.8c-.1.1-.1.2-.2.2l-11,13.8a2,2,0,0,1-2.8.4,4.24,4.24,0,0,1-.6-.69h0a2,2,0,0,1,.2-2.1l10.3-14.4a2.59,2.59,0,0,1,3.7-1Z"/><path class="cls-23" d="M75.3,50.33l8.4,1a3.19,3.19,0,0,1-.3,1.4,3.7,3.7,0,0,1-.5,1.1l-8.9.4a1.9,1.9,0,0,1-1.2-.7c0-.1-.1-.2-.2-.4l-.1-.2h0a2.42,2.42,0,0,1,2.4-2.6Z"/><path class="cls-22" d="M99.6,35.62A2.69,2.69,0,0,0,97.9,39a.35.35,0,0,0,.1.2c1.8,5.6,3.7,11.2,5.5,16.7a2,2,0,0,0,2.5,1.41,4.5,4.5,0,0,0,.9-.5h0a2.14,2.14,0,0,0,.6-2c-1.6-5.7-3.1-11.3-4.7-17a2.78,2.78,0,0,0-3.2-2.21Z"/><path class="cls-7" d="M104.9,57.33,88.8,50.52l-4.5.5a2.68,2.68,0,0,1,5-1.7l15.8,3.8a2.44,2.44,0,0,1,1.8,3c0,.1-.1.3-.1.4h0l-.5.4A1.49,1.49,0,0,1,104.9,57.33Z"/><path class="cls-22" d="M105.1,53.22l-8.3-2a7.84,7.84,0,0,0-.2,1.4,4.87,4.87,0,0,0,.1,1.2l8.3,3.5a1.44,1.44,0,0,0,1.3-.3l.3-.3.2-.2h0a2.53,2.53,0,0,0-1.3-3.3C105.3,53.33,105.2,53.22,105.1,53.22Z"/><path class="cls-17" d="M74.8,105.62c.1.6,2,.7,2.9.8a9.26,9.26,0,0,0,3.3-.3,6.07,6.07,0,0,0,1.4-.7l.3-.09.3-.1a15.67,15.67,0,0,1,2.1-.7l.4-.1a3.33,3.33,0,0,0,2.1-1.1,2.71,2.71,0,0,0-.3-2.9h-.1a2.19,2.19,0,0,1-.5.3,5.51,5.51,0,0,0-1.7,1.7,5.52,5.52,0,0,1-3.7,2.2,4,4,0,0,1-2.5-1l-.9.3c-.8.3-1.4.6-1.9.8C75,105.12,74.8,105.42,74.8,105.62Z"/><rect class="cls-5" x="38.8" y="61.72" width="2.7" height="44.3"/><rect class="cls-5" x="119.8" y="58.72" width="2.6" height="48.1"/><rect class="cls-11" x="41.5" y="58.02" width="78.3" height="9.2"/><rect class="cls-24" x="35.7" y="58.02" width="89.4" height="4.7"/><path class="cls-25" d="M89.1,58H70.3l-.2-1.6L67.6,39.83a.74.74,0,0,1,.7-.91H87.1a.77.77,0,0,1,.8.71l2.5,16.79h0A1.38,1.38,0,0,1,89.2,58Z"/><path class="cls-26" d="M90.5,56.62A1.37,1.37,0,0,1,89.1,58H62.3a1.5,1.5,0,0,1,.4-1.1,1.31,1.31,0,0,1,.9-.4h.2l26.7.1Z"/><polygon class="cls-26" points="73.8 42.33 69.6 42.33 69.4 41.33 73.6 41.33 73.8 42.33"/></g></g></svg>